<?xml version="1.0" encoding="UTF-8"?>
<svg xmlns="http://www.w3.org/2000/svg" width="48" height="48" viewBox="0 0 48 48" fill="none">
  <circle cx="24" cy="24" r="24" fill="#E2EDFB" fill-opacity="0.5"></circle>
  <path d="M29.84 33.5H36.34C36.4727 33.5 36.5998 33.4473 36.6936 33.3536C36.7874 33.2598 36.84 33.1326 36.84 33V26.5C36.84 26.3674 36.7874 26.2402 36.6936 26.1464C36.5998 26.0527 36.4727 26 36.34 26H29.84V14.5C29.84 13.9696 29.6293 13.4609 29.2543 13.0858C28.8792 12.7107 28.3705 12.5 27.84 12.5H26.34V10C26.34 9.86739 26.2874 9.74021 26.1936 9.64645C26.0998 9.55268 25.9727 9.5 25.84 9.5H18.84C18.7074 9.5 18.5803 9.55268 18.4865 9.64645C18.3927 9.74021 18.34 9.86739 18.34 10V12.5H16.84C16.3096 12.5 15.8009 12.7107 15.4258 13.0858C15.0508 13.4609 14.84 13.9696 14.84 14.5V27.73C14.5362 27.4346 14.1604 27.2239 13.7499 27.1186C13.3394 27.0134 12.9085 27.0173 12.5 27.13C12.3596 27.1746 12.2307 27.2498 12.1226 27.35C12.0146 27.4503 11.93 27.5732 11.875 27.71C11.8241 27.8463 11.8035 27.9921 11.8148 28.1372C11.826 28.2823 11.8687 28.4231 11.94 28.55C12.3603 29.2941 12.5418 30.1493 12.46 31C12.3066 31.6357 11.9733 32.2137 11.5 32.665C11.387 32.7779 11.2972 32.9119 11.236 33.0595C11.1748 33.207 11.1433 33.3652 11.1433 33.525C11.1433 33.6848 11.1748 33.843 11.236 33.9905C11.2972 34.1381 11.387 34.2721 11.5 34.385L14.33 37.215C14.5511 37.4313 14.8416 37.5623 15.15 37.585C15.3322 37.8672 15.5826 38.0989 15.8779 38.2588C16.1733 38.4187 16.5042 38.5017 16.84 38.5H27.84C28.3705 38.5 28.8792 38.2893 29.2543 37.9142C29.6293 37.5391 29.84 37.0304 29.84 36.5V33.5ZM27.34 32.5V30.5H35.84V32.5H27.34ZM20.085 32.605L18.585 30.365L21.89 26.785C22.0995 26.5467 22.21 26.2374 22.1991 25.9204C22.1883 25.6033 22.0567 25.3024 21.8315 25.079C21.6062 24.8556 21.3041 24.7267 20.987 24.7185C20.6698 24.7103 20.3615 24.8235 20.125 25.035L17.835 27.18V18.5H26.835V26C26.7024 26 26.5753 26.0527 26.4815 26.1464C26.3877 26.2402 26.335 26.3674 26.335 26.5V33C26.335 33.1326 26.3877 33.2598 26.4815 33.3536C26.5753 33.4473 26.7024 33.5 26.835 33.5V35H19.38L19.915 34.465C20.158 34.2247 20.3083 33.9063 20.3394 33.566C20.3705 33.2257 20.2804 32.8854 20.085 32.605ZM35.84 29.5H27.34V28.5H35.84V29.5ZM35.84 27.5H27.34V27H35.84V27.5ZM19.34 10.5H25.34V15.5H19.34V10.5ZM16.84 13.5H18.34V15.5H17.84C17.7074 15.5 17.5803 15.5527 17.4865 15.6464C17.3927 15.7402 17.34 15.8674 17.34 16C17.34 16.1326 17.3927 16.2598 17.4865 16.3536C17.5803 16.4473 17.7074 16.5 17.84 16.5H26.84C26.9727 16.5 27.0998 16.4473 27.1936 16.3536C27.2874 16.2598 27.34 16.1326 27.34 16C27.34 15.8674 27.2874 15.7402 27.1936 15.6464C27.0998 15.5527 26.9727 15.5 26.84 15.5H26.34V13.5H27.84C28.1053 13.5 28.3596 13.6054 28.5471 13.7929C28.7347 13.9804 28.84 14.2348 28.84 14.5V26H27.84V18C27.84 17.8674 27.7874 17.7402 27.6936 17.6464C27.5998 17.5527 27.4727 17.5 27.34 17.5H17.34C17.2074 17.5 17.0803 17.5527 16.9865 17.6464C16.8927 17.7402 16.84 17.8674 16.84 18V28.12L15.84 29.055V14.5C15.84 14.2348 15.9454 13.9804 16.1329 13.7929C16.3205 13.6054 16.5748 13.5 16.84 13.5ZM12.225 33.675C12.2049 33.655 12.189 33.6313 12.1781 33.6051C12.1672 33.5789 12.1616 33.5508 12.1616 33.5225C12.1616 33.4942 12.1672 33.4661 12.1781 33.4399C12.189 33.4137 12.2049 33.39 12.225 33.37C13.45 32.37 14.005 29.735 12.78 28.085C12.9237 28.0362 13.0735 28.0076 13.225 28C13.4368 28.0007 13.6444 28.0581 13.8265 28.1663C14.0085 28.2744 14.1582 28.4294 14.26 28.615L15.13 30.23C15.1657 30.3012 15.2179 30.3629 15.2823 30.4099C15.3467 30.4568 15.4213 30.4877 15.5 30.5C15.5749 30.5124 15.6517 30.5076 15.7245 30.486C15.7972 30.4643 15.8641 30.4264 15.92 30.375L20.825 25.78C20.8474 25.7573 20.8739 25.7393 20.9032 25.7269C20.9325 25.7145 20.964 25.708 20.9958 25.7078C21.0276 25.7076 21.0591 25.7136 21.0886 25.7256C21.1181 25.7375 21.1449 25.7552 21.1675 25.7775C21.1902 25.7998 21.2082 25.8264 21.2206 25.8557C21.233 25.885 21.2395 25.9164 21.2397 25.9482C21.24 25.98 21.2339 26.0116 21.222 26.041C21.21 26.0705 21.1924 26.0973 21.17 26.12L17.59 30C17.5129 30.0825 17.466 30.1887 17.4569 30.3013C17.4478 30.4139 17.4771 30.5262 17.54 30.62L19.26 33.195C19.3225 33.2835 19.3517 33.3912 19.3426 33.4991C19.3334 33.607 19.2865 33.7083 19.21 33.785L16.855 36.135C16.8186 36.1701 16.7733 36.1947 16.724 36.2062C16.6747 36.2176 16.6232 36.2155 16.575 36.2C16.3666 36.1575 16.1508 36.1688 15.9479 36.2326C15.745 36.2965 15.5616 36.4108 15.415 36.565C15.3758 36.6016 15.3237 36.6214 15.27 36.62C15.2304 36.6208 15.1909 36.6136 15.154 36.599C15.1171 36.5845 15.0835 36.5627 15.055 36.535L12.225 33.675ZM27.84 37.5H16.84C16.5843 37.4977 16.3392 37.3975 16.155 37.22C16.1922 37.1895 16.2362 37.1686 16.2832 37.159C16.3303 37.1495 16.379 37.1515 16.425 37.165C16.6288 37.2042 16.839 37.1933 17.0376 37.1332C17.2362 37.0731 17.4172 36.9656 17.565 36.82L18.38 36H27.34C27.4727 36 27.5998 35.9473 27.6936 35.8536C27.7874 35.7598 27.84 35.6326 27.84 35.5V33.5H28.84V36.5C28.84 36.7652 28.7347 37.0196 28.5471 37.2071C28.3596 37.3946 28.1053 37.5 27.84 37.5Z" fill="#ED1C24"></path>
  <path d="M21.3401 12.5H23.3401C23.4727 12.5 23.5999 12.4473 23.6936 12.3536C23.7874 12.2598 23.8401 12.1326 23.8401 12C23.8401 11.8674 23.7874 11.7402 23.6936 11.6464C23.5999 11.5527 23.4727 11.5 23.3401 11.5H21.3401C21.2075 11.5 21.0803 11.5527 20.9865 11.6464C20.8928 11.7402 20.8401 11.8674 20.8401 12C20.8401 12.1326 20.8928 12.2598 20.9865 12.3536C21.0803 12.4473 21.2075 12.5 21.3401 12.5Z" fill="#ED1C24"></path>
  <path d="M20.8401 14.5H23.8401C23.9727 14.5 24.0999 14.4473 24.1936 14.3536C24.2874 14.2598 24.3401 14.1326 24.3401 14C24.3401 13.8674 24.2874 13.7402 24.1936 13.6464C24.0999 13.5527 23.9727 13.5 23.8401 13.5H20.8401C20.7075 13.5 20.5803 13.5527 20.4865 13.6464C20.3928 13.7402 20.3401 13.8674 20.3401 14C20.3401 14.1326 20.3928 14.2598 20.4865 14.3536C20.5803 14.4473 20.7075 14.5 20.8401 14.5Z" fill="#ED1C24"></path>
  <path d="M34.8401 32C35.1162 32 35.3401 31.7761 35.3401 31.5C35.3401 31.2239 35.1162 31 34.8401 31C34.5639 31 34.3401 31.2239 34.3401 31.5C34.3401 31.7761 34.5639 32 34.8401 32Z" fill="#ED1C24"></path>
</svg>
