<?xml version="1.0" encoding="UTF-8"?>
<svg xmlns="http://www.w3.org/2000/svg" width="48" height="48" viewBox="0 0 48 48" fill="none">
  <circle cx="24" cy="24" r="24" fill="#E2EDFB" fill-opacity="0.5"></circle>
  <path d="M34.5001 11H12.8334C11.6387 11 10.6667 11.972 10.6667 13.1667V28.7667C10.6667 29.9614 11.6387 30.9333 12.8334 30.9333H20.4843L19.4443 34.4H17.6001C17.3604 34.4 17.1667 34.5941 17.1667 34.8333C17.1667 36.028 18.1387 37 19.3334 37H28.0001C29.1948 37 30.1667 36.028 30.1667 34.8333C30.1667 34.5941 29.973 34.4 29.7334 34.4H27.8891L26.8491 30.9333H34.5001C35.6948 30.9333 36.6667 29.9614 36.6667 28.7667V13.1667C36.6667 11.972 35.6948 11 34.5001 11ZM12.8334 11.8667H34.5001C35.2168 11.8667 35.8001 12.4499 35.8001 13.1667V26.6H11.5334V21.4H18.0334V21.8333C18.0334 22.5501 18.6167 23.1333 19.3334 23.1333H27.6014C27.8129 24.601 29.0752 25.7333 30.6001 25.7333C32.2723 25.7333 33.6334 24.3727 33.6334 22.7C33.6334 21.1751 32.5007 19.9128 31.0334 19.7013V15.7667C31.0334 15.0499 30.4501 14.4667 29.7334 14.4667H22.0357L18.6604 12.7788C18.5634 12.7307 18.452 12.7195 18.3476 12.7498L15.3727 13.6H11.5334V13.1667C11.5334 12.4499 12.1167 11.8667 12.8334 11.8667V11.8667ZM27.6014 22.2667H19.3334C19.0942 22.2667 18.9001 22.0721 18.9001 21.8333V21.4H20.4167C21.2531 21.4 21.9334 20.7197 21.9334 19.8833C21.9334 19.6498 21.8758 19.4309 21.7813 19.2333H30.1667V19.7013C28.8412 19.8924 27.7925 20.9411 27.6014 22.2667ZM18.9001 17.5H30.1667V18.3667H18.9001V17.5ZM30.6001 20.5333C31.7948 20.5333 32.7667 21.5053 32.7667 22.7C32.7667 23.8947 31.7948 24.8667 30.6001 24.8667C29.4054 24.8667 28.4334 23.8947 28.4334 22.7C28.4334 21.5053 29.4054 20.5333 30.6001 20.5333ZM30.1667 16.6333H18.9001V15.7667C18.9001 15.5279 19.0942 15.3333 19.3334 15.3333H29.7334C29.9726 15.3333 30.1667 15.5279 30.1667 15.7667V16.6333ZM19.3334 14.4667C18.6167 14.4667 18.0334 15.0499 18.0334 15.7667V18.3667H17.1667V19.2333H18.4667H20.4167C20.7751 19.2333 21.0667 19.525 21.0667 19.8833C21.0667 20.2417 20.7751 20.5333 20.4167 20.5333H11.5334V14.4667H15.4334C15.4737 14.4667 15.514 14.461 15.5521 14.4498L18.4234 13.6295L20.0978 14.4667H19.3334ZM28.0001 36.1333H19.3334C18.7683 36.1333 18.2865 35.7711 18.1075 35.2667H29.226C29.047 35.7711 28.5651 36.1333 28.0001 36.1333ZM26.9843 34.4H20.3491L21.3891 30.9333H25.9443L26.9843 34.4ZM34.5001 30.0667H12.8334C12.1167 30.0667 11.5334 29.4834 11.5334 28.7667V27.4667H35.8001V28.7667C35.8001 29.4834 35.2168 30.0667 34.5001 30.0667Z" fill="#ED1C24"></path>
  <path d="M31.1667 24C31.2947 24 31.4227 23.951 31.5202 23.8535L33.5202 21.8535L32.8132 21.1465L31.1667 22.793L30.5202 22.1465L29.8132 22.8535L30.8132 23.8535C30.9107 23.951 31.0387 24 31.1667 24Z" fill="#ED1C24"></path>
  <path d="M22.1667 19.5H23.1667V20.5H22.1667V19.5Z" fill="#ED1C24"></path>
  <path d="M24.1667 19.5H25.1667V20.5H24.1667V19.5Z" fill="#ED1C24"></path>
  <path d="M26.1667 19.5H27.1667V20.5H26.1667V19.5Z" fill="#ED1C24"></path>
</svg>
