<?xml version="1.0" encoding="UTF-8"?>
<svg xmlns="http://www.w3.org/2000/svg" width="48" height="48" viewBox="0 0 48 48" fill="none">
  <circle cx="24" cy="24" r="24" fill="#E2EDFB" fill-opacity="0.5"></circle>
  <path d="M12.6925 28.9906L11.6312 29.3338L10.7279 26.5699L9.86987 26.8499L10.7731 29.6093C10.8454 29.8396 11.0079 30.0293 11.2202 30.1377C11.4325 30.2461 11.6763 30.2687 11.9112 30.1919L12.9725 29.8487C13.4692 30.7564 14.0789 31.6009 14.797 32.3641L14.1421 33.2674C13.9976 33.4616 13.9389 33.7009 13.975 33.9358C14.0112 34.1751 14.1421 34.3874 14.3363 34.5319L16.5266 36.1216C16.7254 36.2661 16.9647 36.3248 17.2041 36.2841C17.4434 36.248 17.6512 36.117 17.7912 35.9228L18.4505 35.0241C19.3899 35.4758 20.3834 35.7964 21.4041 35.9861V37.1016C21.4041 37.5983 21.8105 38.0048 22.3073 38.0048H25.017C25.5137 38.0048 25.9202 37.5983 25.9202 37.1016V35.9861C26.9408 35.7964 27.9344 35.4712 28.8783 35.0196L29.5286 35.9183C29.6686 36.117 29.8763 36.2435 30.1157 36.2841C30.3595 36.3248 30.5989 36.2661 30.7931 36.1216L32.9834 34.5319C33.1821 34.3874 33.3086 34.1751 33.3447 33.9358C33.3808 33.6964 33.3221 33.4616 33.1821 33.2674L32.5318 32.3596C33.2454 31.6054 33.8595 30.7609 34.3518 29.8441L35.4131 30.1919C35.6434 30.2641 35.8873 30.2461 36.1041 30.1377C36.3208 30.0248 36.4789 29.8396 36.5512 29.6093L37.4544 26.8454L36.5963 26.5654L35.6931 29.3338L34.6318 28.9861C34.2254 28.8506 33.7783 29.0312 33.557 29.4151C33.1008 30.2551 32.5318 31.0364 31.8725 31.7364C31.5699 32.057 31.5383 32.5448 31.7957 32.888L32.4505 33.7912L30.2602 35.3809L29.6008 34.4732C29.3434 34.1254 28.8828 34.008 28.4808 34.1932C27.6092 34.6087 26.6925 34.9067 25.7576 35.0828C25.3286 35.1641 25.0125 35.5345 25.0125 35.968V37.0835H22.3028V35.968C22.3028 35.5345 21.9912 35.1596 21.5576 35.0828C20.6183 34.9067 19.7015 34.6087 18.8254 34.1887C18.4279 34.008 17.9673 34.1209 17.7099 34.4732L17.055 35.3764L14.8647 33.7867L15.515 32.888C15.777 32.5403 15.7454 32.0525 15.4383 31.7319C14.7789 31.0319 14.2099 30.2506 13.7492 29.4016C13.5325 29.0267 13.0854 28.8461 12.6789 28.9816L12.6925 28.9906Z" fill="#ED1C24"></path>
  <path d="M23.6667 33.4839C27.835 33.4839 31.4705 30.8149 32.7125 26.8452L31.8499 26.5742C30.7254 30.1645 27.4376 32.5807 23.6621 32.5807C19.8867 32.5807 16.5989 30.1691 15.4744 26.5742L14.6118 26.8452C15.8538 30.8149 19.4892 33.4839 23.6576 33.4839H23.6667Z" fill="#ED1C24"></path>
  <path d="M9.66675 24.9033H37.6667V25.8065H9.66675V24.9033Z" fill="#ED1C24"></path>
  <path d="M35.8602 24V17.6774C35.8602 17.429 35.657 17.2258 35.4086 17.2258H31.7957V10.4516C31.7957 10.2032 31.5925 10 31.3441 10H25.9248C25.6764 10 25.4731 10.2032 25.4731 10.4516V14.9677H21.8602V13.1613C21.8602 13.0258 21.8015 12.8994 21.6977 12.8135L18.988 10.5555C18.8209 10.4155 18.577 10.4155 18.4099 10.5555L15.7002 12.8135C15.5964 12.8994 15.5377 13.0258 15.5377 13.1613V16.7742H11.9248C11.6764 16.7742 11.4731 16.9774 11.4731 17.2258V24H12.3764V17.6774H15.5377V24H16.4409V13.3735L18.699 11.4903L20.957 13.3735V24H21.8602V15.871H25.4731V24H26.3764V10.9032H30.8925V24H31.7957V18.129H34.957V24H35.8602Z" fill="#ED1C24"></path>
  <path d="M27.2795 12.2588H28.1828V13.162H27.2795V12.2588Z" fill="#ED1C24"></path>
  <path d="M29.0862 12.2588H29.9894V13.162H29.0862V12.2588Z" fill="#ED1C24"></path>
  <path d="M27.2795 14.5166H28.1828V15.4198H27.2795V14.5166Z" fill="#ED1C24"></path>
  <path d="M29.0862 14.5166H29.9894V15.4198H29.0862V14.5166Z" fill="#ED1C24"></path>
  <path d="M27.2795 16.7744H28.1828V17.6776H27.2795V16.7744Z" fill="#ED1C24"></path>
  <path d="M29.0862 16.7744H29.9894V17.6776H29.0862V16.7744Z" fill="#ED1C24"></path>
  <path d="M17.3442 14.0645H20.0539V14.9677H17.3442V14.0645Z" fill="#ED1C24"></path>
  <path d="M17.3442 16.3232H20.0539V17.2265H17.3442V16.3232Z" fill="#ED1C24"></path>
</svg>
