<?xml version="1.0" encoding="UTF-8"?>
<svg xmlns="http://www.w3.org/2000/svg" width="48" height="48" viewBox="0 0 48 48" fill="none">
  <circle cx="24" cy="24" r="24" fill="#E2EDFB" fill-opacity="0.5"></circle>
  <g clip-path="url(#clip0_5614_35587)">
    <path d="M9.16675 19C9.03414 19 8.90696 19.0527 8.81319 19.1464C8.71943 19.2402 8.66675 19.3674 8.66675 19.5V21.5C8.66675 21.6326 8.71943 21.7598 8.81319 21.8536C8.90696 21.9473 9.03414 22 9.16675 22H10.2569C10.4137 22.6795 10.6738 23.331 11.0279 23.9317L9.81319 25.1464C9.76675 25.1929 9.72992 25.248 9.70479 25.3087C9.67966 25.3693 9.66673 25.4343 9.66673 25.5C9.66673 25.5657 9.67966 25.6307 9.70479 25.6913C9.72992 25.752 9.76675 25.8071 9.81319 25.8536L11.3132 27.3536C11.3596 27.4 11.4147 27.4368 11.4754 27.462C11.5361 27.4871 11.6011 27.5 11.6667 27.5C11.7324 27.5 11.7974 27.4871 11.8581 27.462C11.9188 27.4368 11.9739 27.4 12.0203 27.3536L13.2351 26.1388C13.8358 26.493 14.4872 26.753 15.1667 26.9098V28.5C15.1667 28.6326 15.2194 28.7598 15.3132 28.8536C15.407 28.9473 15.5341 29 15.6667 29H17.4199C17.7401 30.2421 18.3545 31.389 19.2112 32.3438C20.0678 33.2986 21.1416 34.0332 22.3419 34.4858C23.5422 34.9383 24.8337 35.0955 26.1075 34.944C27.3813 34.7924 28.5999 34.3367 29.6605 33.6152L34.6061 38.5607C34.7454 38.7 34.9107 38.8105 35.0927 38.8859C35.2747 38.9612 35.4698 39 35.6667 39C35.8637 39 36.0588 38.9612 36.2408 38.8859C36.4228 38.8105 36.5881 38.7 36.7274 38.5607C36.8667 38.4214 36.9772 38.256 37.0526 38.074C37.128 37.892 37.1668 37.697 37.1668 37.5C37.1668 37.303 37.128 37.108 37.0526 36.926C36.9772 36.744 36.8667 36.5786 36.7274 36.4393L31.7819 31.4937C32.8783 29.8834 33.3483 27.9278 33.1034 25.9952C32.8584 24.0625 31.9155 22.2859 30.4521 21H31.1667C31.2994 21 31.4265 20.9473 31.5203 20.8536C31.6141 20.7598 31.6667 20.6326 31.6667 20.5V18.5913C31.7653 18.33 33.1667 14.6077 33.1667 14.5C33.1667 13.4005 32.8567 12.533 32.2452 11.9215C31.6338 11.31 30.7662 11 29.6667 11C28.5672 11 27.6997 11.3101 27.0882 11.9215C26.4767 12.5329 26.1667 13.4005 26.1667 14.5C26.1667 14.5599 27.6667 18.5906 27.6667 18.5906V19.4004C26.8601 19.1346 26.0161 18.9994 25.1667 19H23.0766C22.9198 18.3205 22.6597 17.669 22.3056 17.0683L23.5203 15.8536C23.5667 15.8071 23.6036 15.752 23.6287 15.6913C23.6538 15.6307 23.6668 15.5657 23.6668 15.5C23.6668 15.4343 23.6538 15.3693 23.6287 15.3087C23.6036 15.248 23.5667 15.1929 23.5203 15.1464L22.0203 13.6464C21.9739 13.6 21.9188 13.5632 21.8581 13.538C21.7974 13.5129 21.7324 13.5 21.6667 13.5C21.6011 13.5 21.5361 13.5129 21.4754 13.538C21.4147 13.5632 21.3596 13.6 21.3132 13.6464L20.0984 14.8612C19.4977 14.507 18.8463 14.247 18.1667 14.0902V12.5C18.1667 12.3674 18.1141 12.2402 18.0203 12.1464C17.9265 12.0527 17.7994 12 17.6667 12H15.6667C15.5341 12 15.407 12.0527 15.3132 12.1464C15.2194 12.2402 15.1667 12.3674 15.1667 12.5V14.0902C14.4872 14.247 13.8358 14.507 13.2351 14.8612L12.0203 13.6464C11.9739 13.6 11.9188 13.5632 11.8581 13.538C11.7974 13.5129 11.7324 13.5 11.6667 13.5C11.6011 13.5 11.5361 13.5129 11.4754 13.538C11.4147 13.5632 11.3596 13.6 11.3132 13.6464L9.81319 15.1464C9.76675 15.1929 9.72992 15.248 9.70479 15.3087C9.67966 15.3693 9.66673 15.4343 9.66673 15.5C9.66673 15.5657 9.67966 15.6307 9.70479 15.6913C9.72992 15.752 9.76675 15.8071 9.81319 15.8536L11.0279 17.0683C10.6738 17.669 10.4137 18.3205 10.2569 19H9.16675ZM36.0203 37.1465C36.0679 37.1927 36.1057 37.2478 36.1318 37.3088C36.1578 37.3697 36.1715 37.4353 36.1719 37.5015C36.1724 37.5678 36.1597 37.6335 36.1346 37.6948C36.1094 37.7562 36.0723 37.8119 36.0255 37.8587C35.9786 37.9056 35.9229 37.9427 35.8616 37.9678C35.8003 37.9929 35.7345 38.0056 35.6683 38.0052C35.602 38.0047 35.5365 37.991 35.4755 37.965C35.4146 37.9389 35.3594 37.901 35.3132 37.8535L30.456 32.9964C30.7061 32.7755 30.9422 32.5394 31.1631 32.2893L36.0203 37.1465ZM27.1676 14.4115C27.1972 12.8112 28.0377 12 29.6667 12C31.298 12 32.1384 12.8131 32.166 14.4173C32.0254 14.8034 31.3421 16.6189 30.8211 18H28.5132L27.1676 14.4115ZM28.6667 19H30.6667V20H29.036C28.9148 19.9327 28.7917 19.8685 28.6667 19.8073V19ZM32.1667 27C32.1667 28.3843 31.7563 29.7375 30.9874 30.8885C30.2184 32.0395 29.1254 32.9367 27.8466 33.4667C26.5678 33.9967 25.1606 34.1356 23.8029 33.8658C22.4451 33.5961 21.1979 32.9299 20.2187 31.9514C19.2395 30.973 18.5725 29.7261 18.3018 28.3686C18.0312 27.011 18.1691 25.6037 18.6982 24.3245C19.2273 23.0454 20.1237 21.9518 21.2743 21.1821C22.4248 20.4123 23.7777 20.001 25.1619 20H25.1667C27.0226 20.0021 28.8019 20.7403 30.1142 22.0526C31.4265 23.3649 32.1646 25.1441 32.1667 27ZM16.6667 23C16.1723 23 15.6889 22.8534 15.2778 22.5787C14.8667 22.304 14.5463 21.9135 14.357 21.4567C14.1678 20.9999 14.1183 20.4972 14.2148 20.0123C14.3112 19.5273 14.5493 19.0819 14.899 18.7322C15.2486 18.3826 15.6941 18.1445 16.179 18.048C16.664 17.9516 17.1666 18.0011 17.6235 18.1903C18.0803 18.3795 18.4707 18.7 18.7454 19.1111C19.0201 19.5222 19.1667 20.0055 19.1667 20.5C19.166 21.1628 18.9024 21.7983 18.4337 22.2669C17.965 22.7356 17.3296 22.9993 16.6667 23ZM11.1599 19.5823C11.2973 18.7601 11.61 17.9771 12.0766 17.2864C12.1439 17.1901 12.1752 17.0732 12.1649 16.9562C12.1546 16.8392 12.1034 16.7295 12.0204 16.6464L10.8738 15.5L11.6667 14.7071L12.8132 15.8536C12.8963 15.9366 13.0059 15.9878 13.1229 15.9981C13.2399 16.0083 13.3568 15.9771 13.4531 15.9098C14.1438 15.4432 14.9269 15.1305 15.7491 14.9931C15.8658 14.9736 15.9718 14.9134 16.0483 14.8231C16.1248 14.7328 16.1667 14.6183 16.1667 14.5V13H17.1667V14.5C17.1667 14.6183 17.2087 14.7328 17.2852 14.8231C17.3617 14.9135 17.4677 14.9737 17.5844 14.9932C18.4066 15.1306 19.1896 15.4432 19.8804 15.9099C19.9767 15.9772 20.0936 16.0084 20.2106 15.9981C20.3276 15.9878 20.4372 15.9367 20.5203 15.8536L21.6667 14.7071L22.4597 15.5L21.3132 16.6464C21.2301 16.7295 21.179 16.8392 21.1687 16.9562C21.1584 17.0732 21.1896 17.1901 21.2569 17.2864C21.7234 17.9768 22.036 18.7594 22.1734 19.5813C21.4462 19.8761 20.7662 20.2762 20.1554 20.7688C20.1622 20.6798 20.1667 20.5903 20.1667 20.4997C20.1671 19.7562 19.9307 19.0319 19.4919 18.4316C19.0531 17.8314 18.4346 17.3865 17.726 17.1612C17.0174 16.936 16.2555 16.9421 15.5507 17.1788C14.8459 17.4155 14.2346 17.8704 13.8056 18.4776C13.3765 19.0848 13.1519 19.8129 13.1642 20.5563C13.1766 21.2997 13.4252 22.0199 13.8742 22.6125C14.3232 23.2052 14.9491 23.6396 15.6614 23.8527C16.3737 24.0659 17.1354 24.0468 17.8361 23.7981C17.3936 24.8075 17.1656 25.8979 17.1667 27C17.1668 27.3343 17.1877 27.6683 17.2292 28H16.1667V26.5C16.1668 26.3817 16.1248 26.2672 16.0483 26.1769C15.9718 26.0865 15.8658 26.0263 15.7491 26.0068C14.9269 25.8694 14.1438 25.5568 13.4531 25.0901C13.3568 25.0228 13.2399 24.9916 13.1229 25.0019C13.0059 25.0122 12.8963 25.0633 12.8132 25.1464L11.6667 26.2929L10.8738 25.5L12.0203 24.3536C12.1034 24.2705 12.1545 24.1608 12.1648 24.0438C12.1751 23.9268 12.1438 23.8099 12.0766 23.7136C11.6099 23.0229 11.2973 22.2399 11.1599 21.4177C11.1404 21.301 11.0802 21.1949 10.9899 21.1185C10.8996 21.042 10.7851 21 10.6667 21H9.66675V20H10.6667C10.7851 20 10.8996 19.958 10.9899 19.8815C11.0802 19.8051 11.1405 19.699 11.1599 19.5823Z" fill="#ED1C24"></path>
    <path d="M24.2195 10.7764C24.1602 10.895 24.1505 11.0323 24.1924 11.1581C24.2343 11.2839 24.3245 11.3879 24.4431 11.4472L25.4431 11.9472C25.5019 11.9771 25.566 11.9952 25.6318 12.0002C25.6976 12.0053 25.7638 11.9973 25.8265 11.9767C25.8891 11.9561 25.9471 11.9232 25.9971 11.8801C26.047 11.837 26.0879 11.7844 26.1174 11.7254C26.1469 11.6663 26.1645 11.6021 26.169 11.5362C26.1736 11.4704 26.1651 11.4043 26.1439 11.3418C26.1228 11.2793 26.0896 11.2215 26.046 11.1719C26.0025 11.1223 25.9496 11.0818 25.8904 11.0528L24.8904 10.5528C24.7718 10.4935 24.6344 10.4837 24.5086 10.5256C24.3828 10.5676 24.2789 10.6578 24.2195 10.7764Z" fill="#ED1C24"></path>
    <path d="M29.1667 8.5V9.5C29.1667 9.63261 29.2194 9.75979 29.3132 9.85355C29.407 9.94732 29.5341 10 29.6667 10C29.7994 10 29.9265 9.94732 30.0203 9.85355C30.1141 9.75979 30.1667 9.63261 30.1667 9.5V8.5C30.1667 8.36739 30.1141 8.24021 30.0203 8.14645C29.9265 8.05268 29.7994 8 29.6667 8C29.5341 8 29.407 8.05268 29.3132 8.14645C29.2194 8.24021 29.1667 8.36739 29.1667 8.5Z" fill="#ED1C24"></path>
    <path d="M26.4431 8.55279C26.3245 8.6121 26.2343 8.7161 26.1924 8.8419C26.1505 8.9677 26.1602 9.105 26.2195 9.2236L26.7195 10.2236C26.7486 10.2829 26.7891 10.3358 26.8387 10.3793C26.8883 10.4228 26.946 10.4561 27.0085 10.4772C27.0711 10.4983 27.1371 10.5068 27.203 10.5023C27.2688 10.4977 27.3331 10.4802 27.3921 10.4507C27.4511 10.4212 27.5037 10.3802 27.5469 10.3303C27.59 10.2804 27.6228 10.2224 27.6434 10.1597C27.6641 10.097 27.6721 10.0309 27.667 9.96508C27.6619 9.89928 27.6439 9.83514 27.6139 9.77636L27.1139 8.77636C27.0546 8.65776 26.9506 8.56758 26.8248 8.52565C26.699 8.48372 26.5617 8.49349 26.4431 8.55279Z" fill="#ED1C24"></path>
    <path d="M32.2196 8.77596L31.7196 9.77596C31.6896 9.83474 31.6716 9.89889 31.6665 9.96468C31.6614 10.0305 31.6695 10.0966 31.6901 10.1593C31.7107 10.222 31.7435 10.28 31.7867 10.3299C31.8298 10.3798 31.8824 10.4208 31.9414 10.4503C32.0004 10.4798 32.0647 10.4973 32.1305 10.5019C32.1964 10.5064 32.2625 10.4979 32.325 10.4768C32.3875 10.4557 32.4452 10.4224 32.4948 10.3789C32.5444 10.3354 32.5849 10.2825 32.614 10.2232L33.114 9.22321C33.1439 9.16442 33.162 9.10028 33.167 9.03448C33.1721 8.96869 33.1641 8.90254 33.1435 8.83986C33.1229 8.77717 33.09 8.71919 33.0469 8.66925C33.0038 8.61931 32.9512 8.57841 32.8922 8.54889C32.8331 8.51938 32.7689 8.50184 32.703 8.49729C32.6372 8.49273 32.5711 8.50126 32.5086 8.52236C32.4461 8.54347 32.3883 8.57675 32.3387 8.62027C32.2891 8.66379 32.2486 8.71671 32.2196 8.77596Z" fill="#ED1C24"></path>
    <path d="M34.4432 10.5526L33.4432 11.0526C33.3839 11.0817 33.331 11.1222 33.2875 11.1718C33.244 11.2214 33.2107 11.2791 33.1896 11.3416C33.1685 11.4041 33.16 11.4702 33.1645 11.536C33.1691 11.6019 33.1866 11.6661 33.2161 11.7252C33.2456 11.7842 33.2865 11.8368 33.3365 11.8799C33.3864 11.9231 33.4444 11.9559 33.5071 11.9765C33.5698 11.9971 33.6359 12.0051 33.7017 12.0001C33.7675 11.995 33.8317 11.977 33.8904 11.947L34.8904 11.447C34.9497 11.4179 35.0026 11.3774 35.0461 11.3278C35.0896 11.2782 35.1229 11.2205 35.144 11.158C35.1651 11.0955 35.1737 11.0294 35.1691 10.9635C35.1646 10.8977 35.147 10.8334 35.1175 10.7744C35.088 10.7154 35.0471 10.6628 34.9971 10.6197C34.9472 10.5765 34.8892 10.5437 34.8265 10.5231C34.7639 10.5025 34.6977 10.4945 34.6319 10.4995C34.5661 10.5046 34.502 10.5226 34.4432 10.5526Z" fill="#ED1C24"></path>
    <path d="M19.1667 27C19.1667 28.1867 19.5186 29.3467 20.1779 30.3334C20.8372 31.3201 21.7743 32.0892 22.8706 32.5433C23.967 32.9974 25.1734 33.1162 26.3373 32.8847C27.5012 32.6532 28.5703 32.0818 29.4094 31.2426C30.2485 30.4035 30.82 29.3344 31.0515 28.1705C31.283 27.0067 31.1642 25.8003 30.71 24.7039C30.2559 23.6075 29.4869 22.6705 28.5002 22.0112C27.5135 21.3519 26.3534 21 25.1667 21C23.576 21.0018 22.0509 21.6345 20.9261 22.7593C19.8012 23.8842 19.1685 25.4092 19.1667 27ZM30.1667 27C30.1667 27.9889 29.8735 28.9556 29.3241 29.7779C28.7747 30.6001 27.9938 31.241 27.0802 31.6194C26.1665 31.9978 25.1612 32.0969 24.1913 31.9039C23.2214 31.711 22.3305 31.2348 21.6312 30.5355C20.932 29.8363 20.4557 28.9454 20.2628 27.9755C20.0699 27.0055 20.1689 26.0002 20.5474 25.0866C20.9258 24.173 21.5667 23.3921 22.3889 22.8427C23.2111 22.2932 24.1778 22 25.1667 22C26.4924 22.0015 27.7633 22.5288 28.7006 23.4661C29.638 24.4035 30.1652 25.6744 30.1667 27Z" fill="#ED1C24"></path>
    <path d="M22.1667 27C22.1667 26.8674 22.1141 26.7402 22.0203 26.6464C21.9265 26.5527 21.7994 26.5 21.6667 26.5C21.5341 26.5 21.407 26.5527 21.3132 26.6464C21.2194 26.7402 21.1667 26.8674 21.1667 27C21.1679 28.0605 21.5897 29.0772 22.3396 29.8271C23.0895 30.577 24.1062 30.9988 25.1667 31C25.2994 31 25.4265 30.9473 25.5203 30.8536C25.6141 30.7598 25.6667 30.6326 25.6667 30.5C25.6667 30.3674 25.6141 30.2402 25.5203 30.1464C25.4265 30.0527 25.2994 30 25.1667 30C24.3714 29.9991 23.6088 29.6828 23.0464 29.1204C22.484 28.5579 22.1676 27.7954 22.1667 27Z" fill="#ED1C24"></path>
  </g>
  <defs>
    <clipPath id="clip0_5614_35587">
      <rect width="32" height="32" fill="white" transform="translate(7.16675 8)"></rect>
    </clipPath>
  </defs>
</svg>
