<?xml version="1.0" encoding="UTF-8"?>
<svg xmlns="http://www.w3.org/2000/svg" width="48" height="48" viewBox="0 0 48 48" fill="none">
  <circle cx="24" cy="24" r="24" fill="#E2EDFB" fill-opacity="0.5"></circle>
  <path d="M23.6667 17.2867L26.9914 14.5161H31.3441V10H20.5054V14.5161H23.6667V17.2867ZM21.4086 13.6129V10.9032H30.4409V13.6129H26.6645L24.5699 15.3585V13.6129H21.4086Z" fill="#ED1C24"></path>
  <path d="M22.312 11.8066H23.2152V12.7099H22.312V11.8066Z" fill="#ED1C24"></path>
  <path d="M24.1184 11.8066H27.7313V12.7099H24.1184V11.8066Z" fill="#ED1C24"></path>
  <path d="M28.6345 11.8066H29.5377V12.7099H28.6345V11.8066Z" fill="#ED1C24"></path>
  <path d="M32.656 37.097L32.2908 33.4411C33.7987 33.2027 34.9571 31.897 34.9571 30.3228V24.4518H33.1506V23.8278C33.1506 23.2139 32.8132 22.6626 32.2708 22.3799C32.8101 21.8844 33.1506 21.1759 33.1506 20.3873V19.4841C33.1506 17.9897 31.9354 16.7744 30.4409 16.7744C28.9465 16.7744 27.7313 17.9897 27.7313 19.4841V20.3873C27.7313 21.5565 28.4768 22.5519 29.5165 22.9312L27.0927 25.3551H24.56C24.5096 24.6022 23.9924 23.946 23.2599 23.7365L21.4087 23.2081V22.4015C21.9615 21.9051 22.3119 21.1876 22.3119 20.3873V19.4841C22.3119 17.9897 21.0967 16.7744 19.6022 16.7744C18.1078 16.7744 16.8926 17.9897 16.8926 19.4841V20.3873C16.8926 21.1871 17.2429 21.9047 17.7958 22.4015V23.2086L15.9446 23.7369C15.1732 23.9568 14.6345 24.6712 14.6345 25.4739V27.1615H12.828V29.8712H13.7313V37.097H9.66675V38.0002H37.6667V37.097H32.656ZM28.6345 29.8712V27.8001L31.8346 24.6C32.0659 24.3687 32.2035 24.058 32.2344 23.7338C32.2383 23.7654 32.2474 23.7951 32.2474 23.8278V29.4196C32.2474 30.1665 31.6394 30.7744 30.8926 30.7744H27.2796V29.8712H28.6345ZM27.2796 33.4841H29.5807L29.9419 37.097H27.2796V33.4841ZM30.4883 33.4841H31.3872L31.7484 37.097H30.8496L30.4883 33.4841ZM33.1506 29.4196V25.3551H34.0538V30.3228C34.0538 31.5678 33.0408 32.5809 31.7958 32.5809H27.2796V31.6776H30.8926C32.1376 31.6776 33.1506 30.6646 33.1506 29.4196ZM28.6345 20.3873V19.4841C28.6345 18.4878 29.4447 17.6776 30.4409 17.6776C31.4372 17.6776 32.2474 18.4878 32.2474 19.4841V20.3873C32.2474 21.3836 31.4372 22.1938 30.4409 22.1938C29.4447 22.1938 28.6345 21.3836 28.6345 20.3873ZM27.4666 26.2583L30.4797 23.2452C30.5741 23.1508 30.7047 23.097 30.8379 23.097C31.117 23.097 31.3442 23.3241 31.3442 23.6033C31.3442 23.7365 31.2904 23.867 31.196 23.9614L27.9959 27.1615H23.2151C22.966 27.1615 22.7635 26.9591 22.7635 26.7099C22.7635 26.4607 22.966 26.2583 23.2151 26.2583H27.4666ZM17.7958 19.4841C17.7958 18.4878 18.6059 17.6776 19.6022 17.6776C20.5985 17.6776 21.4087 18.4878 21.4087 19.4841V20.3873C21.4087 21.3836 20.5985 22.1938 19.6022 22.1938C18.6059 22.1938 17.7958 21.3836 17.7958 20.3873V19.4841ZM19.6022 23.097C19.9193 23.097 20.2223 23.0392 20.5055 22.9389V23.424C20.3934 23.5969 20.0823 24.0002 19.6022 24.0002C19.1222 24.0002 18.811 23.5969 18.699 23.424V22.9389C18.9821 23.0392 19.2851 23.097 19.6022 23.097ZM15.5377 25.4739C15.5377 25.0724 15.8074 24.7156 16.1926 24.6053L18.0531 24.0739C18.3151 24.4152 18.8249 24.9034 19.6022 24.9034C20.3795 24.9034 20.8894 24.4152 21.1513 24.0734L23.0118 24.6049C23.3578 24.7039 23.599 25.0047 23.6473 25.3546H23.2151C22.4683 25.3546 21.8603 25.9626 21.8603 26.7095C21.8603 26.8684 21.8927 27.0193 21.9434 27.1611H15.5377V25.4739ZM13.7313 28.0647H27.7313V28.968H13.7313V28.0647ZM14.6345 31.6776H15.9893V30.7744H14.6345V29.8712H26.3764V30.7744H16.8926V31.6776H26.3764V37.097H25.3008L24.3975 35.2905H16.6134L15.7102 37.097H14.6345V31.6776ZM24.2908 37.097H16.7201L17.1717 36.1938H23.8392L24.2908 37.097Z" fill="#ED1C24"></path>
</svg>
