<?xml version="1.0" encoding="UTF-8"?>
<svg xmlns="http://www.w3.org/2000/svg" width="48" height="48" viewBox="0 0 48 48" fill="none">
  <circle cx="24" cy="24" r="24" fill="#E2EDFB" fill-opacity="0.5"></circle>
  <g clip-path="url(#clip0_6234_44090)">
    <mask id="mask0_6234_44090" style="mask-type:luminance" maskUnits="userSpaceOnUse" x="7" y="8" width="33" height="32">
      <path d="M7.66675 8H39.6667V40H7.66675V8Z" fill="white"></path>
    </mask>
    <g mask="url(#mask0_6234_44090)">
      <path d="M28.3111 35.3147H28.3108C28.3108 35.3147 26.9622 34.5045 26.9548 33.0287V30.9701H20.3785V33.0166C20.3785 34.5002 19.0221 35.3147 19.0221 35.3147C18.0118 35.3147 17.1926 36.1338 17.1926 37.1442V37.9609H30.1406V37.1442C30.1406 36.1338 29.3216 35.3147 28.3111 35.3147Z" stroke="#ED1C24" stroke-miterlimit="10" stroke-linecap="round" stroke-linejoin="round"></path>
      <path d="M39.0417 12.2015V29.4322C39.0417 30.1413 38.2139 30.9697 37.1916 30.9697H10.1419C9.11956 30.9697 8.29175 30.1413 8.29175 29.4322V12.2015C8.29175 10.8672 9.11956 10.0387 10.1419 10.0387H37.1916C38.2139 10.0387 39.0417 10.8672 39.0417 12.2015Z" stroke="#ED1C24" stroke-miterlimit="10" stroke-linecap="round" stroke-linejoin="round"></path>
      <path d="M19.0223 35.3148H28.3113C29.3217 35.3148 30.1408 36.1338 30.1408 37.1443V37.9609H17.1929V37.1443C17.1929 36.1338 18.0119 35.3148 19.0223 35.3148Z" stroke="#ED1C24" stroke-miterlimit="10" stroke-linecap="round" stroke-linejoin="round"></path>
      <path d="M20.9411 27.7922H8.29175V29.1196C8.29175 30.1414 9.12012 30.9697 10.1419 30.9697H37.1917C38.2134 30.9697 39.0417 30.1414 39.0417 29.1196V27.7922H26.4402" stroke="#ED1C24" stroke-miterlimit="10" stroke-linecap="round" stroke-linejoin="round"></path>
      <path d="M30.1147 14.8579L30.1154 14.8572L30.0039 14.5308L28.2662 16.2685L26.8087 15.8606L26.4016 14.4054L28.14 12.667L27.8137 12.5554C26.5809 12.1586 25.175 12.4498 24.1965 13.4283C23.2766 14.3481 22.9649 15.6455 23.2601 16.8221L18.2578 21.8243C18.5339 22.3623 18.8976 22.8677 19.3483 23.3184L19.3499 23.32C19.8016 23.771 20.3069 24.1348 20.8459 24.4111L25.8476 19.4096C27.0241 19.7046 28.3215 19.3931 29.2413 18.4731C30.2194 17.4951 30.5106 16.0902 30.1147 14.8579Z" stroke="#ED1C24" stroke-miterlimit="10" stroke-linecap="round" stroke-linejoin="round"></path>
      <path d="M20.8462 24.4105L20.8455 24.4111C20.833 24.4049 20.8199 24.398 20.8074 24.3911C20.8206 24.398 20.833 24.4042 20.8462 24.4105Z" stroke="#ED1C24" stroke-miterlimit="10" stroke-linecap="round" stroke-linejoin="round"></path>
      <path d="M23.2259 16.8553L19.2587 20.8232L18.2577 21.8242C18.256 21.821 18.2544 21.8177 18.2527 21.8145C17.9447 21.2108 17.3325 20.8232 16.6547 20.8232H8.29175V16.8553H16.9469C17.5734 16.8553 18.1489 16.5237 18.476 15.9895C18.7168 15.5962 19.0074 15.2246 19.3481 14.8839C20.7368 13.4952 22.6407 12.9343 24.4446 13.202C24.358 13.2725 24.2752 13.3494 24.1963 13.4283C23.2766 14.348 22.9646 15.6455 23.2597 16.8215L23.2259 16.8553Z" stroke="#ED1C24" stroke-miterlimit="10" stroke-linecap="round" stroke-linejoin="round"></path>
      <path d="M39.0417 16.8556V20.8234H30.4753C29.8018 20.8234 29.188 21.204 28.8829 21.8046C28.6057 22.3503 28.2391 22.8624 27.7827 23.3188C25.9057 25.1958 23.0883 25.5604 20.8462 24.4106L24.4339 20.8234L25.8476 19.4098C27.0243 19.7049 28.3211 19.3929 29.2414 18.4731C29.7054 18.0092 30.0149 17.4483 30.17 16.8556H39.0417Z" stroke="#ED1C24" stroke-miterlimit="10" stroke-linecap="round" stroke-linejoin="round"></path>
    </g>
  </g>
  <defs>
    <clipPath id="clip0_6234_44090">
      <rect width="32" height="32" fill="white" transform="translate(7.66675 8)"></rect>
    </clipPath>
  </defs>
</svg>
